<svg width="144" height="30" viewBox="0 0 144 30" fill="none" xmlns="http://www.w3.org/2000/svg">
<path d="M0 30V21.6562C0 17.7396 2.21875 15.5208 6.65625 15C2.21875 14.4792 0 12.2604 0 8.34375V0H6.65625V10C6.65625 10.9062 6.98437 11.6927 7.64062 12.3594C8.29688 13.0156 9.08333 13.3438 10 13.3438C10.9062 13.3438 11.6875 13.0156 12.3438 12.3594C13.0104 11.6927 13.3438 10.9062 13.3438 10V0H20V8.34375C20 12.2604 17.7812 14.4792 13.3438 15C17.7812 15.5417 20 17.7656 20 21.6719V30H13.3438V20C13.3438 19.0833 13.0104 18.2969 12.3438 17.6406C11.6875 16.9844 10.9062 16.6562 10 16.6562C9.08333 16.6562 8.29688 16.9844 7.64062 17.6406C6.98437 18.2969 6.65625 19.0833 6.65625 20V30H0Z" fill="#039BF0"/>
<path d="M26.6797 30V0H40.0234C41.8464 0 43.4089 0.656249 44.7109 1.96875C46.0234 3.28125 46.6797 4.84375 46.6797 6.65625V10C46.6797 11.8229 46.0234 13.3906 44.7109 14.7031C43.4089 16.0052 41.8464 16.6562 40.0234 16.6562H33.3359V30H26.6797ZM33.3359 13.3438H36.6797C37.5859 13.3438 38.3672 13.0156 39.0234 12.3594C39.6901 11.6927 40.0234 10.9062 40.0234 10V6.65625C40.0234 5.75 39.6901 4.97396 39.0234 4.32812C38.3672 3.67187 37.5859 3.34375 36.6797 3.34375H33.3359V13.3438Z" fill="#039BF0"/>
<path d="M53.3203 30V0H66.6641C68.487 0 70.0495 0.656249 71.3516 1.96875C72.6641 3.28125 73.3203 4.84375 73.3203 6.65625V8.46875C73.3203 9.95833 72.8099 11.3958 71.7891 12.7812C70.7682 14.1562 69.0599 14.8438 66.6641 14.8438H69.9766C70.8932 14.8438 71.6797 15.1719 72.3359 15.8281C72.9922 16.4844 73.3203 17.2708 73.3203 18.1875V30H66.6641V20C66.6641 19.0833 66.3307 18.2969 65.6641 17.6406C65.0078 16.9844 64.2266 16.6562 63.3203 16.6562H59.9766V30H53.3203ZM59.9766 13.3438H63.3203C64.2266 13.3438 65.0078 13.0156 65.6641 12.3594C66.3307 11.6927 66.6641 10.9062 66.6641 10V6.65625C66.6641 5.75 66.3307 4.97396 65.6641 4.32812C65.0078 3.67187 64.2266 3.34375 63.3203 3.34375H59.9766V13.3438Z" fill="#039BF0"/>
<path d="M79.9609 30V0H96.6172V3.34375H86.6172V13.3438H93.3047V16.6562H86.6172V26.6562H96.6172V30H79.9609Z" fill="#039BF0"/>
<path d="M119.977 6.65625H116.664C116.372 4.42708 115.32 3.3125 113.508 3.3125C112.341 3.3125 111.461 3.59375 110.867 4.15625C110.273 4.71875 109.977 5.55729 109.977 6.67188C109.977 7.50521 110.305 8.28646 110.961 9.01562L118.023 16.9531C119.326 18.4115 119.977 19.9792 119.977 21.6562V23.3438C119.977 25.1458 119.326 26.7083 118.023 28.0312C116.721 29.3438 115.154 30 113.32 30H109.977C107.768 30 106.107 29.4427 104.992 28.3281C103.878 27.2135 103.32 25.5521 103.32 23.3438H106.664C106.643 23.5729 106.633 23.7552 106.633 23.8906C106.633 24.7969 106.982 25.4844 107.68 25.9531C108.378 26.4219 109.143 26.6562 109.977 26.6562C111.164 26.6562 112.018 26.3698 112.539 25.7969C113.06 25.224 113.32 24.3906 113.32 23.2969C113.32 22.4531 112.992 21.6719 112.336 20.9531L105.273 13.0469C103.971 11.599 103.32 10.0312 103.32 8.34375V6.65625C103.32 4.84375 103.971 3.28125 105.273 1.96875C106.576 0.656249 108.143 0 109.977 0H113.32C117.487 0 119.706 2.21875 119.977 6.65625Z" fill="#039BF0"/>
<path d="M143.336 6.65625H140.023C139.732 4.42708 138.68 3.3125 136.867 3.3125C135.701 3.3125 134.82 3.59375 134.227 4.15625C133.633 4.71875 133.336 5.55729 133.336 6.67188C133.336 7.50521 133.664 8.28646 134.32 9.01562L141.383 16.9531C142.685 18.4115 143.336 19.9792 143.336 21.6562V23.3438C143.336 25.1458 142.685 26.7083 141.383 28.0312C140.081 29.3438 138.513 30 136.68 30H133.336C131.128 30 129.466 29.4427 128.352 28.3281C127.237 27.2135 126.68 25.5521 126.68 23.3438H130.023C130.003 23.5729 129.992 23.7552 129.992 23.8906C129.992 24.7969 130.341 25.4844 131.039 25.9531C131.737 26.4219 132.503 26.6562 133.336 26.6562C134.523 26.6562 135.378 26.3698 135.898 25.7969C136.419 25.224 136.68 24.3906 136.68 23.2969C136.68 22.4531 136.352 21.6719 135.695 20.9531L128.633 13.0469C127.331 11.599 126.68 10.0312 126.68 8.34375V6.65625C126.68 4.84375 127.331 3.28125 128.633 1.96875C129.935 0.656249 131.503 0 133.336 0H136.68C140.846 0 143.065 2.21875 143.336 6.65625Z" fill="#039BF0"/>
</svg>
